<?xml version="1.0" encoding="UTF-8"?>
<svg id="svg8" width="128" height="128" version="1.1" viewBox="0 0 33.867 33.867" xml:space="preserve" xmlns="http://www.w3.org/2000/svg" xmlns:cc="http://creativecommons.org/ns#" xmlns:dc="http://purl.org/dc/elements/1.1/" xmlns:rdf="http://www.w3.org/1999/02/22-rdf-syntax-ns#"><metadata id="metadata5"><rdf:RDF><cc:Work rdf:about=""><dc:format>image/svg+xml</dc:format><dc:type rdf:resource="http://purl.org/dc/dcmitype/StillImage"/><dc:creator><cc:Agent><dc:title>Google, adapted by Mirian Margiani</dc:title></cc:Agent></dc:creator><cc:license rdf:resource="http://creativecommons.org/licenses/by-sa/4.0/"/><dc:date>2023</dc:date><dc:rights><cc:Agent><dc:title>OFL-1.1</dc:title></cc:Agent></dc:rights><dc:description>Based on u1F_345.glif from NotoEmoji by Google: https://web.archive.org/web/20230626125803/https://github.com/notofonts/noto-source/blob/main/src/NotoEmoji/NotoEmoji-Regular.ufo/glyphs/u1F_345.glif</dc:description></cc:Work><cc:License rdf:about="http://creativecommons.org/licenses/by-sa/4.0/"><cc:permits rdf:resource="http://creativecommons.org/ns#Reproduction"/><cc:permits rdf:resource="http://creativecommons.org/ns#Distribution"/><cc:requires rdf:resource="http://creativecommons.org/ns#Notice"/><cc:requires rdf:resource="http://creativecommons.org/ns#Attribution"/><cc:permits rdf:resource="http://creativecommons.org/ns#DerivativeWorks"/><cc:requires rdf:resource="http://creativecommons.org/ns#ShareAlike"/></cc:License></rdf:RDF></metadata><g id="layer1" transform="translate(0 -263.13)"><path id="path303" d="m15.02 295.42c-6.3357-0.76029-11.782-6.0648-12.502-12.178-0.67837-5.7549 2.6002-11.713 7.3056-13.276 0.73175-0.24304 1.9918-0.25023 2.1328-0.48827 0.12793-0.21599-0.8251-0.64332-0.93307-1.2098-0.2659-1.3951-0.01587-1.7918 0.70822-1.1246 0.31475 0.29004 1.0506 0.79266 1.6352 1.117 0.58461 0.32416 1.2879 0.78681 1.5629 1.0276 0.48937 0.42847 0.50342 0.40653 0.66179-1.0388 0.32101-2.9298 0.95835-4.6908 1.6976-4.6908 0.66004 0 0.7277 0.88997 0.24564 3.232-0.26498 1.2874-0.40656 2.4298-0.31462 2.5386 0.09194 0.10869 0.45834-0.11992 0.81425-0.5076 1.0957-1.1943 1.7835-1.6296 2.5754-1.6296 0.9946 0 1.1614 0.38461 0.58329 1.3453l-1.166 0.99619 2.5547 0.10708c2.2209 0.38314 3.8826 1.316 5.4671 3.0698 3.3788 3.7396 4.3207 9.161 2.4226 13.944-0.88641 2.2336-3.4837 5.2613-5.6593 6.5972-2.9311 1.7999-6.421 2.5726-9.7919 2.1681zm5.5042-1.8525c3.1643-0.8496 5.4911-2.8907 7.1145-5.5076 3.3845-5.4556 2.2546-12.39-2.9732-15.614-1.0748-0.66279-3.1321-1.5723-3.9107-1.2123-0.36047 0.1667-0.31946 0.25786 0.2884 0.63998 0.38974 0.2452 1.1338 0.5952 1.6534 0.77789 0.51966 0.1828 0.935 0.44408 0.92299 0.58087-0.01211 0.13697-0.38402 0.4699-0.82673 0.7406-0.62685 0.38314-1.1081 0.45187-2.1756 0.31148l-1.3707-0.18036 0.15583 0.80636c0.08568 0.44359 0.37191 1.3541 0.63606 2.0235 0.37642 0.95396 0.41508 1.2647 0.17892 1.4374-0.5844 0.4275-2.4532-0.59656-3.7013-2.0279-1.2152-1.3936-1.2263-1.3993-2.7071-1.3596-1.8117 0.0487-3.7634-0.5834-4.1621-1.3474-0.25909-0.49649-0.23065-0.57975 0.23621-0.69177 1.6762-0.40215 1.9969-0.51714 2.487-0.89234 1.3442-1.029-0.7927-1.2974-2.9004-0.36414-1.8459 0.81719-3.1736 2.3528-4.1613 4.7268-0.69916 1.6805-1.1927 2.5667-1.1927 4.8559 0 2.2882 0.20438 3.0179 0.90192 4.6945 1.4369 3.4536 4.2309 6.2025 7.9571 7.2689 1.9116 0.54708 5.494 0.88503 7.5494 0.33195zm-12.966-8.5368c-0.74911-1.7492-1.0314-5.2368-0.51623-6.3788 0.3884-0.86095 1.2789-0.96664 1.1776-0.1399-0.28497 2.3257-0.11733 4.2582 0.50382 5.8071 0.67984 1.6953 0.66032 2.1585-0.090983 2.1585-0.3102 0-0.65124-0.45918-1.0742-1.447z"/></g></svg>
