<?xml version="1.0" encoding="UTF-8"?>
<!-- Generator: Adobe Illustrator 25.2.3, SVG Export Plug-In . SVG Version: 6.00 Build 0)  -->
<svg id="Layer_3" enable-background="new 0 0 128 128" version="1.1" viewBox="0 0 128 128" xml:space="preserve" xmlns="http://www.w3.org/2000/svg" xmlns:cc="http://creativecommons.org/ns#" xmlns:dc="http://purl.org/dc/elements/1.1/" xmlns:rdf="http://www.w3.org/1999/02/22-rdf-syntax-ns#">
<path id="path255" d="m113.85 69.38s1.5254-13.05-1.2489-18.95-11.338-18.93-29.1-21.28c-9.4204-1.24-15.799 0.16-21.615 0.93-3.6843 0.49-10.544-2.05-22.864 1.09-9.1349 2.33-22.998 11.34-27.503 30.76-2.3729 10.23-1.4719 21.28 2.5692 30.59 7.7611 17.86 22.168 22.21 22.168 22.21l28.957 2.64 35.059-16.62z" fill="#ff2a23"/>
<path id="path257" d="m80.187 119.08c18.43-4.04 34.363-22.52 37.137-42.09 2.596-18.31-6.9493-30.58-6.9493-30.58s1.0883 9.77-0.94561 20.18c-2.1856 11.14-8.5104 29.71-28.547 40.23-24.595 12.91-51.536 4.4-51.536 4.4s18.305 14.99 50.84 7.86z" fill="#dc0d27"/>
<path id="path259" d="m29.241 52.76c-4.8975-1.42-11.008 2.73-11.891 14.88-0.81179 11.13 4.5675 24.54 9.8397 22.94 4.4782-1.36 0.1695-10.66 1.7663-18.29 1.6147-7.63 7.7522-17.36 0.28547-19.53z" fill="#fed3b0"/>
<path id="path261" d="m31.87 46.05c-0.78 1.01 1.03 5.45 10.22 5.39 9.18-0.06 10.72-2.83 14.81-1.59s7.28 6.16 11.8 8.85c6.32 3.76 15.44 2.8 15.38 1.13-0.06-1.68-2.29-0.82-4.21-3.17-1.92-2.36-5.32-8.59-5.32-8.59s0.95-2.92 2.96-2.81c4.64 0.25 9.8-0.67 12.64-2.45 3.4-2.12 4.68-5.39 4.06-6.14-0.62-0.74-2.55 1.26-3.6 1.07s-7.88-0.06-7.88-0.06l-8.25-1.34s1.13-4.83 3.36-7.31 5.73-5.89 5.66-6.32-2.88-0.05-2.88-0.05l-8.69 3.97-6.08 8-11.54 1.49-11.11-7.45s-6.37-5.14-6.66-5.02c-1.61 0.66 0.84 3.11 2.69 6.07 1.6 2.57 1.93 3.86 4.09 5.65 2.11 1.74 5.65 3.47 5.65 3.47l-2.54 4.59s-8.19 3.23-9.62 3.23c-1.42 0.01-4.51-1.16-4.94-0.61z" fill="#BDCF44"/>
<path id="path263" d="m57.51 43.28c3.35 0.25 5.77 4.7 8.79 7.73 4.41 4.41 7.86 6.71 11.57 7.58 1.86 0.43 6.13 1.14 6.13 1.14s0.62-0.43-1.49-1.61-3.38-3.44-3.69-4.49-1.28-4.5-3.32-7.36-4.36-4.07-3.62-5.37 7.14 0.9 13.3-0.09c8.13-1.3 9.37-3.91 9-4.22s-5.4 1.18-7.94 0.62-4.72-2.3-8.56-2.3c-2.62 0-5.18 0.95-5.87-0.48-0.58-1.2 1.6-5.21 3.26-6.72 4.03-3.66 8.38-4.53 8.38-5.03 0-1.03-7.07-1.61-11.97 2.3-4.88 3.89-3.96 9-10.3 9-2.11 0-2.92-0.5-2.92-0.5s-2.83-2.33-6.61-4.38-6.63-1.14-8.81-2.19c-2.17-1.05-6.02-3.77-6.39-3.22s2.89 4.27 6.99 7.31 8.69 4.59 7.38 5.83c-1.3 1.24-3.47 2.05-5.52 3.6s-3.85 3.78-6.33 4.59-6.56 0.24-7.12 0.92 4.32 3.03 11.95 1.61c7.61-1.42 7.63-4.72 13.71-4.27z" fill="#94A61D"/>
<path id="path265" d="m65.12 4.94c-1.67-0.08-3.78 1.24-3.78 1.24s-3.06 3.73-4.27 12.99c-0.56 4.28 0.05 10.03-0.07 13.2-0.12 3.16-0.81 4.34-0.62 5.96 0.19 1.61 1.88 3.43 5.79 3.39 3.14-0.03 4.76-2.46 4.7-3.33s-2.75-9.74-1.99-17.56c0.71-7.27 3.36-12.29 3.47-13.34 0.06-0.57-0.69-2.43-3.23-2.55z" fill="#728035"/>
<metadata id="metadata361"><rdf:RDF><cc:Work rdf:about=""><dc:date>2023</dc:date><dc:creator><cc:Agent><dc:title>Google, adapted by Mirian Margiani</dc:title></cc:Agent></dc:creator><dc:rights><cc:Agent><dc:title>OFL-1.1</dc:title></cc:Agent></dc:rights><dc:description>Based on https://github.com/googlefonts/noto-emoji/blob/main/svg/emoji_u1f345.svg by Google.</dc:description></cc:Work></rdf:RDF></metadata></svg>
